<?xml version="1.0" encoding="UTF-8" standalone="no"?>
<svg
   xmlns:dc="http://purl.org/dc/elements/1.1/"
   xmlns:cc="http://creativecommons.org/ns#"
   xmlns:rdf="http://www.w3.org/1999/02/22-rdf-syntax-ns#"
   xmlns:svg="http://www.w3.org/2000/svg"
   xmlns="http://www.w3.org/2000/svg"
   xmlns:sodipodi="http://sodipodi.sourceforge.net/DTD/sodipodi-0.dtd"
   xmlns:inkscape="http://www.inkscape.org/namespaces/inkscape"
   data-name="Your Icon"
   viewBox="0 0 85.33 112"
   x="0px"
   y="0px"
   version="1.1"
   id="svg22"
   sodipodi:docname="AddCalendar.svg"
   inkscape:version="0.92.4 (unknown)">
  <metadata
     id="metadata28">
    <rdf:RDF>
      <cc:Work
         rdf:about="">
        <dc:format>image/svg+xml</dc:format>
        <dc:type
           rdf:resource="http://purl.org/dc/dcmitype/StillImage" />
        <dc:title>Add Calendar</dc:title>
      </cc:Work>
    </rdf:RDF>
  </metadata>
  <defs
     id="defs26" />
  <sodipodi:namedview
     pagecolor="#ffffff"
     bordercolor="#666666"
     borderopacity="1"
     objecttolerance="10"
     gridtolerance="10"
     guidetolerance="10"
     inkscape:pageopacity="0"
     inkscape:pageshadow="2"
     inkscape:window-width="804"
     inkscape:window-height="480"
     id="namedview24"
     showgrid="false"
     inkscape:zoom="2.1071429"
     inkscape:cx="42.665001"
     inkscape:cy="56"
     inkscape:window-x="0"
     inkscape:window-y="0"
     inkscape:window-maximized="0"
     inkscape:current-layer="svg22" />
  <title
     id="title2">Add Calendar</title>
  <g
     id="g16"
     transform="translate(0,9.0169492)"
     style="fill:#ffffff">
    <path
       d="m 18,15.87 a 6.4,6.4 0 0 0 -6.4,6.4 v 61.86 a 6.4,6.4 0 0 0 6.4,6.4 h 64 a 6.4,6.4 0 0 0 6.4,-6.4 V 22.27 A 6.4,6.4 0 0 0 82,15.87 Z M 18,11.6 H 82 A 10.67,10.67 0 0 1 92.67,22.27 V 84.13 A 10.67,10.67 0 0 1 82,94.8 H 18 A 10.67,10.67 0 0 1 7.33,84.13 V 22.27 A 10.67,10.67 0 0 1 18,11.6 Z"
       transform="translate(-7.33,-5.2)"
       id="path4"
       inkscape:connector-curvature="0"
       style="fill:#ffffff" />
    <polygon
       points="82.81,30.07 82.81,34.33 2,34.33 2,30.07 "
       id="polygon6"
       style="fill:#ffffff" />
    <path
       d="m 30.46,7.33 a 2.13,2.13 0 1 1 4.26,0 v 12.84 a 2.13,2.13 0 1 1 -4.26,0 z"
       transform="translate(-7.33,-5.2)"
       id="path8"
       inkscape:connector-curvature="0"
       style="fill:#ffffff" />
    <path
       data-name="Path-3"
       d="m 47.87,49.33 a 2.13,2.13 0 0 1 4.26,0 v 31.84 a 2.13,2.13 0 0 1 -4.26,0 z"
       transform="translate(-7.33,-5.2)"
       id="path10"
       inkscape:connector-curvature="0"
       style="fill:#ffffff" />
    <path
       d="m 64.59,7.33 a 2.14,2.14 0 0 1 4.27,0 v 12.84 a 2.14,2.14 0 0 1 -4.27,0 z"
       transform="translate(-7.33,-5.2)"
       id="path12"
       inkscape:connector-curvature="0"
       style="fill:#ffffff" />
    <path
       data-name="Path-3"
       d="m 65.92,63.12 a 2.14,2.14 0 0 1 0,4.27 H 34.08 a 2.14,2.14 0 0 1 0,-4.27 z"
       transform="translate(-7.33,-5.2)"
       id="path14"
       inkscape:connector-curvature="0"
       style="fill:#ffffff" />
  </g>
</svg>
