<?xml version="1.0" encoding="UTF-8" standalone="no"?>
<svg
   xmlns:dc="http://purl.org/dc/elements/1.1/"
   xmlns:cc="http://creativecommons.org/ns#"
   xmlns:rdf="http://www.w3.org/1999/02/22-rdf-syntax-ns#"
   xmlns:svg="http://www.w3.org/2000/svg"
   xmlns="http://www.w3.org/2000/svg"
   xmlns:sodipodi="http://sodipodi.sourceforge.net/DTD/sodipodi-0.dtd"
   xmlns:inkscape="http://www.inkscape.org/namespaces/inkscape"
   version="1.1"
   x="0px"
   y="0px"
   viewBox="0 0 1024 1280"
   style="enable-background:new 0 0 1024 1024;"
   xml:space="preserve"
   id="svg32"
   sodipodi:docname="Bed.svg"
   inkscape:version="0.92.4 (unknown)"><metadata
     id="metadata38"><rdf:RDF><cc:Work
         rdf:about=""><dc:format>image/svg+xml</dc:format><dc:type
           rdf:resource="http://purl.org/dc/dcmitype/StillImage" /><dc:title></dc:title></cc:Work></rdf:RDF></metadata><defs
     id="defs36" /><sodipodi:namedview
     pagecolor="#ffffff"
     bordercolor="#666666"
     borderopacity="1"
     objecttolerance="10"
     gridtolerance="10"
     guidetolerance="10"
     inkscape:pageopacity="0"
     inkscape:pageshadow="2"
     inkscape:window-width="804"
     inkscape:window-height="480"
     id="namedview34"
     showgrid="false"
     inkscape:zoom="0.184375"
     inkscape:cx="512"
     inkscape:cy="640"
     inkscape:window-x="0"
     inkscape:window-y="0"
     inkscape:window-maximized="0"
     inkscape:current-layer="svg32" /><g
     id="g26"
     transform="translate(6.7796595e-8,113.89831)"
     style="fill:#ffffff"><g
       id="g8"
       style="fill:#ffffff"><path
         d="m 965,576.5 v 235.2 c 0,7.8 -5.2,14.3 -13,14.3 H 892.9 C 885.1,826 878,819.5 878,811.7 V 651 H 145 v 160.7 c 0,7.8 -5.2,14.3 -13,14.3 H 72.9 C 65.1,826 59,819.5 59,811.7 V 211.3 C 59,203.5 65.1,198 72.9,198 H 132 c 7.8,0 13,5.4 13,13.3 V 563 h 807 c 7.8,0 13,5.7 13,13.5 z"
         id="path2"
         inkscape:connector-curvature="0"
         style="fill:#ffffff" /><g
         id="g6"
         style="fill:#ffffff"><path
           d="m 945.4,576.5 c 0,26.6 0,53.2 0,79.7 0,42.3 0,84.5 0,126.8 0,9.4 -0.2,18.9 0,28.3 0,0.1 0,0.3 0,0.4 0,1.2 -0.5,3.8 0.2,-1.3 -0.2,1.1 -1.5,3.6 0.6,-1.2 -1.3,2.9 0.3,-0.5 0.9,-1 2.3,-1.6 2.9,-2 1.6,-1.2 -1.3,0.8 -0.7,0.5 1.9,-0.7 -3.3,1.2 3.3,0.2 0.6,-0.1 -1.2,-0.1 -2.5,0 -3.7,0 -10,0 -20,0 -30,0 -5.2,0 -10.4,0 -15.5,0 -2.6,0 -5.9,-0.5 -8.5,0 -0.1,0 -0.4,-0.1 -0.5,0 0,0 2.5,0.4 2.6,0.4 -3.3,-0.9 0.4,0.4 0.9,0.7 -3,-1.6 0.2,0.4 0.6,0.8 -2.4,-2.3 0.1,0.5 0.4,1 -2.4,-3.7 0.8,3.2 0.1,0.5 -0.6,-2.1 0.5,1.5 0.2,2 0.3,-0.5 0,-2 0,-2.5 0,-15 0,-30 0,-45 0,-37.1 0,-74.2 0,-111.3 0,-0.8 0,-1.5 0,-2.3 0,-10.8 -9.2,-20 -20,-20 -6.6,0 -13.1,0 -19.7,0 -17.7,0 -35.4,0 -53.2,0 -26.3,0 -52.7,0 -79,0 -32,0 -63.9,0 -95.9,0 -35.2,0 -70.4,0 -105.6,0 -35.4,0 -70.7,0 -106.1,0 -33.1,0 -66.2,0 -99.4,0 -27.9,0 -55.7,0 -83.6,0 -20.1,0 -40.3,0 -60.4,0 -9.5,0 -19.1,-0.2 -28.6,0 -0.4,0 -0.8,0 -1.2,0 -10.8,0 -20,9.2 -20,20 0,46.2 0,92.3 0,138.5 0,7.2 0.1,14.4 0,21.6 0,0.5 -0.1,1.1 0,1.7 0.2,2.7 1.2,-4.8 -0.1,-0.7 1.8,-5.5 -1.7,1 1.9,-3.4 -0.3,0.3 -0.6,0.6 -0.9,0.9 1.2,-1.4 2.7,-2.3 4.5,-2.7 -3.1,1.1 0.4,-0.6 1.4,-0.1 -0.8,-0.3 -2.5,0 -3.4,0 -2.7,0 -5.3,0 -8,0 -13.8,0 -27.6,0 -41.4,0 -1.7,0 -3.5,-0.1 -5.2,0 -0.2,0 -0.8,-0.1 -1,0 -0.2,0.2 -24.3,-6 2.5,0.4 -2.1,-0.6 -1.7,-0.4 1,0.7 -1.8,-1.1 -1.5,-0.8 0.9,0.8 -3.3,-2.7 2,3.6 0,-0.1 1.9,3.6 1.1,2.5 0.7,1 8.8,34.6 0.3,2.9 0.5,2.6 0.1,-0.1 0,-0.4 0,-0.6 0.9,-7.6 0,-15.9 0,-23.6 0,-17.6 0,-35.2 0,-52.8 0,-53.2 0,-106.4 0,-159.7 0,-60.4 0,-120.8 0,-181.1 0,-47 0,-94 0,-141 0,-11.9 0,-23.8 0,-35.7 0,-1.5 0.6,-4.5 0,-5.9 0,0 0,-0.1 0,-0.1 0.8,1.1 -1.3,4.5 -0.1,1.4 -0.3,0.8 -0.7,1.6 -1,2.4 1.1,-1.8 0.8,-1.5 -0.9,1 -0.7,0.5 -1.4,1 -2.1,1.5 1.5,-0.8 1.4,-0.9 -0.2,-0.2 -0.4,0.2 -0.8,0.3 -1.2,0.5 2.1,-0.6 1.6,-0.6 -1.4,-0.1 0.1,0 1.7,-0.1 2.1,-0.1 4.7,-0.1 9.3,0 14,0 13.5,0 26.9,0 40.4,0 1.2,0 2.5,0 3.7,0 0.1,0 0.1,0 0.2,0 0.5,0 0.9,0 1.4,0.1 -1.9,0.1 -3.7,-0.3 -5.3,-1.4 2.9,1.6 -0.8,-0.8 -1.1,-1.1 1.4,1.5 1.1,1.1 -0.9,-1.3 -1.1,-3 -1.3,-3.4 -0.6,-1.4 -0.8,-5.4 -0.2,-1.3 -0.2,0.2 0.1,13.5 0,27 0,40.5 0,55.8 0,111.7 0,167.5 0,44.9 0,89.9 0,134.8 0,2.4 0,4.8 0,7.2 0,10.8 9.2,20 20,20 7.3,0 14.7,0 22,0 19.8,0 39.7,0 59.5,0 29.4,0 58.9,0 88.3,0 35.7,0 71.4,0 107.1,0 39.2,0 78.3,0 117.5,0 39.4,0 78.8,0 118.2,0 36.4,0 72.8,0 109.2,0 30.6,0 61.2,0 91.8,0 21.5,0 42.9,0 64.4,0 9.4,0 18.9,0.1 28.3,0 0.2,0 0.3,0 0.5,0 0,0 0,0 0,0 0.8,0 2.7,0.5 0,-0.1 -0.6,-0.1 -5.2,-2.2 -3.3,-1 1.8,1.2 -1.7,-1.5 -1.6,-1.4 2.4,2.1 -0.6,-0.9 -0.9,-1.3 0.9,1.2 0.6,2.9 -0.6,-1.4 -0.2,0 -0.5,-4.6 -0.3,-1 0.4,10.4 8.9,20.5 20,20 10.5,-0.5 20.5,-8.8 20,-20 -0.9,-20.2 -16,-33.5 -35.7,-33.5 -4.2,0 -8.4,0 -12.6,0 -18.1,0 -36.1,0 -54.2,0 -28.3,0 -56.6,0 -84.8,0 -35.3,0 -70.6,0 -106,0 -39.2,0 -78.4,0 -117.6,0 -39.9,0 -79.8,0 -119.6,0 -37.2,0 -74.5,0 -111.7,0 -31.7,0 -63.5,0 -95.2,0 -22.9,0 -45.8,0 -68.7,0 -10.9,0 -21.8,-0.3 -32.7,0 -0.5,0 -0.9,0 -1.4,0 6.7,6.7 13.3,13.3 20,20 0,-34.6 0,-69.2 0,-103.9 0,-59.9 0,-119.8 0,-179.6 0,-19.3 0,-38.6 0,-57.9 0,-3.4 0.1,-6.7 0,-10.1 -0.4,-12.5 -6.4,-24.5 -18.1,-30.1 -7,-3.4 -14,-3.6 -21.4,-3.6 -14.1,0 -28.2,0 -42.2,0 -3.5,0 -7.1,-0.1 -10.6,0 -18.8,0.7 -33.7,14.4 -34.3,33.5 -0.2,6.2 0,12.4 0,18.6 0,41.2 0,82.4 0,123.6 0,60.5 0,121 0,181.5 0,58 0,116 0,174 0,32.6 0,65.2 0,97.8 0,1.6 0,3.3 0,4.9 0.6,19 15.3,34 34.3,34.6 3.5,0.1 7.1,0 10.6,0 14.1,0 28.2,0 42.2,0 7.4,0 14.6,-0.2 21.4,-3.8 11.7,-6.1 17.7,-18.4 18.1,-31.2 0.6,-20.1 0,-40.3 0,-60.4 0,-28.4 0,-56.7 0,-85.1 0,-5.1 0,-10.2 0,-15.3 -6.7,6.7 -13.3,13.3 -20,20 6.6,0 13.1,0 19.7,0 17.7,0 35.4,0 53.2,0 26.3,0 52.7,0 79,0 32,0 63.9,0 95.9,0 35.2,0 70.4,0 105.6,0 35.4,0 70.7,0 106.1,0 33.1,0 66.2,0 99.4,0 27.9,0 55.7,0 83.6,0 20.1,0 40.3,0 60.4,0 9.5,0 19.1,0.3 28.6,0 0.4,0 0.8,0 1.2,0 -6.7,-6.7 -13.3,-13.3 -20,-20 0,34.1 0,68.2 0,102.3 0,17.6 0,35.2 0,52.9 0,8.1 0.4,15.9 4.8,23.1 6.6,10.7 17.9,17 30.4,17.4 2.5,0.1 5,0 7.5,0 11,0 22.1,0 33.1,0 8.3,0 16.8,0.6 25,-0.8 16.7,-2.9 26.6,-19 26.8,-35 0,-3.9 0,-7.9 0,-11.8 0,-40.3 0,-80.7 0,-121 0,-33.1 0.5,-66.3 0,-99.5 0,-0.6 0,-1.1 0,-1.7 0,-10.5 -9.2,-20.5 -20,-20 -10.9,0.6 -20.1,8.9 -20.1,20.1 z"
           id="path4"
           inkscape:connector-curvature="0"
           style="fill:#ffffff" /></g></g><g
       id="g16"
       style="fill:#ffffff"><circle
         cx="295.70001"
         cy="414.5"
         r="83.199997"
         id="circle10"
         style="fill:#ffffff" /><g
         id="g14"
         style="fill:#ffffff"><path
           d="m 358.9,414.5 c 0,2.1 -0.1,4.2 -0.2,6.3 0,0.5 0,3.2 -0.3,3.4 0,0 0.9,-5.2 0.1,-1.3 -0.8,4 -1.6,7.9 -2.9,11.8 -0.3,0.8 -0.6,1.7 -0.9,2.5 -0.3,0.9 -0.6,4.1 -0.4,1.3 0.1,-2.4 0.2,-0.5 -0.3,0.6 -0.5,1 -0.9,2 -1.4,3 -1.8,3.5 -3.8,6.9 -6.1,10.1 0,0 -1.3,2.1 -1.5,2.1 1.4,-0.3 2.6,-3.1 0.3,-0.5 -1.3,1.5 -2.6,2.9 -3.9,4.4 -1.2,1.2 -2.5,2.5 -3.7,3.6 -0.6,0.6 -1.3,1.2 -2,1.7 -0.5,0.4 -1,0.8 -1.5,1.3 -1.2,0.9 -0.7,0.6 1.5,-1.1 -0.2,0.8 -3.6,2.5 -4.3,3 -1.6,1.1 -3.3,2.1 -5,3.1 -1.7,1 -3.5,1.9 -5.3,2.7 -0.2,0.1 -2,1.1 -2.4,1.1 2.5,-1.1 3.1,-1.3 1.7,-0.8 -0.6,0.2 -1.2,0.5 -1.9,0.7 -3.6,1.3 -7.2,2.3 -11,3.1 -1.1,0.2 -2.2,0.4 -3.3,0.6 -3,0.6 1,0.2 1.3,-0.1 -0.6,0.8 -5.7,0.5 -6.9,0.5 -4,0.1 -7.9,-0.2 -11.8,-0.4 -3,-0.2 5.1,1 0.6,0.1 -0.9,-0.2 -1.8,-0.3 -2.7,-0.5 -2.2,-0.4 -4.4,-1 -6.5,-1.6 -1.7,-0.5 -3.4,-1 -5.1,-1.6 0.1,0 -2.5,-0.8 -2.5,-0.9 0.1,0.7 4,1.9 0.5,0.2 -3.8,-1.8 -7.4,-3.8 -10.9,-6.1 -0.7,-0.5 -4.1,-2.2 -4.3,-3 0.1,0.6 3.1,2.6 1,0.7 -0.8,-0.7 -1.7,-1.4 -2.5,-2.1 -3.1,-2.8 -5.8,-5.8 -8.6,-8.9 -1.9,-2.1 0.1,0.8 0.7,1 -0.3,-0.1 -1.5,-2.1 -1.5,-2.1 -1,-1.4 -2,-2.9 -2.9,-4.4 -1,-1.7 -2,-3.4 -2.9,-5.1 -0.5,-1 -1,-2 -1.5,-2.9 -0.5,-1 -0.7,-3.9 -0.6,-1.2 0.2,2.8 -0.1,-0.4 -0.4,-1.3 -0.3,-0.8 -0.6,-1.7 -0.9,-2.5 -0.5,-1.7 -1,-3.4 -1.5,-5.1 -0.5,-2 -0.9,-4 -1.3,-5.9 -0.7,-3.8 -0.9,-0.1 0,0.6 -0.4,-0.3 -0.3,-3 -0.3,-3.4 -0.3,-3.9 -0.3,-7.9 -0.1,-11.8 0.1,-0.9 0.2,-1.8 0.2,-2.8 0.3,-4.6 -0.7,3.5 -0.1,0.6 0.4,-2.2 0.8,-4.4 1.3,-6.6 0.3,-1.4 2.2,-10.5 3.4,-10.8 -0.3,0.1 -1.8,3.9 -0.5,1.1 0.5,-1 0.9,-2 1.4,-3 1,-2 2,-3.9 3.2,-5.7 1,-1.7 2.1,-3.3 3.2,-4.9 0.2,-0.3 1.3,-2.1 1.5,-2.1 0,0 -3.2,3.8 -0.7,1 2.6,-2.9 5.2,-5.8 8.1,-8.5 0.8,-0.7 1.6,-1.4 2.5,-2.1 2.6,-2.3 -0.2,-1.1 -0.5,0.3 0.2,-0.8 3.5,-2.5 4.3,-3 3.3,-2.2 6.7,-4.1 10.3,-5.8 1.1,-0.5 3.9,-0.7 1.2,-0.6 -2.5,0.2 -0.4,0.2 0.7,-0.2 1.9,-0.6 3.8,-1.3 5.7,-1.9 1.7,-0.5 3.5,-0.9 5.2,-1.3 0.9,-0.2 1.8,-0.4 2.7,-0.5 0.9,-0.2 1.8,-0.3 2.7,-0.4 -0.9,0.1 -1.7,0.2 -2.6,0.4 0.4,-0.6 5.4,-0.5 6.2,-0.5 2.1,-0.1 4.2,-0.1 6.3,0 1.8,0.1 3.7,0.2 5.5,0.4 4,0.3 -1.3,-0.2 -1.2,-0.2 0.4,-0.4 3.3,0.6 4,0.7 4.4,0.9 8.6,2.2 12.9,3.7 3.6,1.2 -1,-0.5 -1.1,-0.5 0.8,-0.1 2.8,1.3 3.6,1.7 2,1 3.9,2 5.8,3.1 1.9,1.1 3.7,2.3 5.5,3.6 0.5,0.3 3.3,3.1 1.1,0.8 -2.2,-2.2 0.5,0.4 1,0.9 3.3,2.8 6.4,5.9 9.2,9.2 0.3,0.4 3.3,3.3 0.9,1 -2.2,-2.1 0.3,0.5 0.8,1.1 1.4,2 2.7,4 3.9,6.1 1.1,1.9 2.1,3.8 3.1,5.8 0.4,0.8 0.7,1.6 1.1,2.4 0.6,1.4 0.4,0.8 -0.7,-1.7 0.2,0.6 0.5,1.2 0.7,1.9 1.4,4.3 2.7,8.5 3.6,12.9 0.2,0.9 0.3,1.8 0.5,2.7 0.2,1.5 0.2,0.9 -0.2,-1.9 0.1,0.7 0.2,1.4 0.2,2.1 0.2,1.5 0.3,4.1 0.4,6.6 0.1,10.5 9.1,20.5 20,20 10.8,-0.5 20.1,-8.8 20,-20 -0.4,-43.8 -27.8,-81.8 -68.6,-97.1 -39.2,-14.8 -86.7,-1.8 -113.2,30.5 -27.7,33.6 -32.7,81.9 -9.9,119.7 22.8,37.8 67.2,56.4 110.3,47.8 47.2,-9.5 81,-53.3 81.4,-100.8 0.1,-10.5 -9.3,-20.5 -20,-20 -10.9,0.4 -19.9,8.7 -20,19.9 z"
           id="path12"
           inkscape:connector-curvature="0"
           style="fill:#ffffff" /></g></g><g
       id="g24"
       style="fill:#ffffff"><path
         d="m 965,513.1 v 63.4 C 965,568.7 959.8,563 952,563 H 447 V 331 h 336.6 c 100,0 181.4,82.2 181.4,182.1 z"
         id="path18"
         inkscape:connector-curvature="0"
         style="fill:#ffffff" /><g
         id="g22"
         style="fill:#ffffff"><path
           d="m 945.4,513.1 c 0,21.1 0,42.3 0,63.4 13.3,0 26.7,0 40,0 -0.8,-19.2 -14.7,-33.1 -34,-33.5 -2.2,-0.1 -4.4,0 -6.6,0 -10.8,0 -21.5,0 -32.3,0 -39.4,0 -78.8,0 -118.2,0 -49.9,0 -99.9,0 -149.8,0 -44,0 -87.9,0 -131.9,0 -21.5,0 -43.1,-0.8 -64.5,0 -0.3,0 -0.6,0 -0.9,0 6.7,6.7 13.3,13.3 20,20 0,-26.2 0,-52.3 0,-78.5 0,-41.5 0,-83 0,-124.5 0,-9.6 0,-19.1 0,-28.7 -6.7,6.7 -13.3,13.3 -20,20 20.8,0 41.6,0 62.4,0 43.7,0 87.5,0 131.2,0 38.6,0 77.2,0 115.7,0 8.6,0 17.2,0 25.8,0 0.4,0 0.9,0 1.3,0 3.3,0 6.5,0.1 9.8,0.3 1.8,0.1 3.7,0.2 5.5,0.4 1.3,0.1 5.9,-0.1 6.9,0.7 -1.1,-0.9 -3.9,-0.6 -1.2,-0.2 0.9,0.1 1.8,0.3 2.7,0.4 2,0.3 4,0.7 6,1.1 4,0.8 7.9,1.7 11.9,2.8 3.7,1 7.3,2.1 10.9,3.3 1.7,0.6 3.4,1.2 5,1.8 1.6,0.6 5,1.2 6.2,2.4 -0.2,-0.2 -4.4,-2 -1.1,-0.4 0.8,0.4 1.6,0.7 2.4,1.1 1.6,0.7 3.2,1.5 4.8,2.3 3.6,1.8 7.1,3.6 10.5,5.6 6.7,3.9 13,8.2 19.2,12.8 2.3,1.7 -3.8,-3.1 -0.4,-0.3 0.7,0.6 1.4,1.1 2,1.7 1.4,1.1 2.7,2.2 4,3.4 3,2.6 5.8,5.3 8.6,8 2.5,2.5 4.9,5 7.2,7.6 1.3,1.5 2.6,3 3.9,4.5 0.6,0.7 1.1,1.3 1.7,2 0.4,0.5 3.5,3.9 1.3,1.6 -2.1,-2.2 1.5,2.1 2,2.7 1.2,1.6 2.3,3.2 3.4,4.8 2.2,3.3 4.3,6.6 6.3,10 1.8,3 3.5,6.1 5.1,9.3 0.8,1.6 1.6,3.2 2.3,4.8 0.8,1.6 2.8,4.4 2.7,6 0,-2.1 -1.3,-3.3 -0.5,-1.1 0.3,0.8 0.7,1.6 1,2.5 0.7,1.9 1.4,3.7 2.1,5.6 1.3,3.8 2.5,7.6 3.6,11.5 2.1,7.7 3.3,15.4 4.8,23.3 -0.1,-0.5 -0.5,-4.8 -0.2,-1.2 0.1,0.9 0.2,1.8 0.3,2.7 0.2,1.8 0.3,3.7 0.5,5.5 0.5,4.1 0.6,8.3 0.6,12.5 0,10.5 9.2,20.5 20,20 10.8,-0.5 20,-8.8 20,-20 -0.3,-69.2 -36.6,-134.1 -95,-171 -29,-18.3 -62.7,-28.6 -96.9,-30.5 -8.2,-0.4 -16.4,-0.3 -24.6,-0.3 -35.5,0 -71,0 -106.5,0 -45.4,0 -90.7,0 -136.1,0 -25.9,0 -51.9,-0.5 -77.9,0 -0.4,0 -0.8,0 -1.2,0 -10.8,0 -20,9.2 -20,20 0,26.2 0,52.3 0,78.5 0,41.5 0,83 0,124.5 0,9.6 0,19.1 0,28.7 0,10.8 9.2,20 20,20 17.2,0 34.3,0 51.5,0 41,0 82.1,0 123.1,0 49.4,0 98.9,0 148.3,0 41.8,0 83.7,0 125.5,0 18.7,0 37.5,0.3 56.2,0 1.2,0 2.5,0.8 0.1,-0.1 -0.9,-0.3 -5.6,-2.7 -2.8,-0.7 -0.4,-0.3 -3.5,-3.2 -1.3,-0.8 -2.8,-3 -1.9,-2.4 -1.1,-1 -0.4,-0.8 -0.8,-1.6 -1.2,-2.4 -0.3,-3.2 -0.3,-3.7 -0.2,-1.4 0.4,10.4 8.9,20.5 20,20 10.8,-0.5 20,-8.8 20,-20 0,-21.1 0,-42.3 0,-63.4 0,-10.5 -9.2,-20.5 -20,-20 -10.7,0.4 -19.9,8.7 -19.9,19.9 z"
           id="path20"
           inkscape:connector-curvature="0"
           style="fill:#ffffff" /></g></g></g><text
     x="0"
     y="1039"
     fill="#000000"
     font-size="5px"
     font-weight="bold"
     font-family="'Helvetica Neue', Helvetica, Arial-Unicode, Arial, Sans-serif"
     id="text28">Created by shashank singh</text>
<text
     x="0"
     y="1044"
     fill="#000000"
     font-size="5px"
     font-weight="bold"
     font-family="'Helvetica Neue', Helvetica, Arial-Unicode, Arial, Sans-serif"
     id="text30">from the Noun Project</text>
</svg>