<?xml version="1.0" encoding="UTF-8" standalone="no"?>
<svg
   xmlns:dc="http://purl.org/dc/elements/1.1/"
   xmlns:cc="http://creativecommons.org/ns#"
   xmlns:rdf="http://www.w3.org/1999/02/22-rdf-syntax-ns#"
   xmlns:svg="http://www.w3.org/2000/svg"
   xmlns="http://www.w3.org/2000/svg"
   xmlns:sodipodi="http://sodipodi.sourceforge.net/DTD/sodipodi-0.dtd"
   xmlns:inkscape="http://www.inkscape.org/namespaces/inkscape"
   version="1.1"
   x="0px"
   y="0px"
   viewBox="0 0 100 125"
   style="enable-background:new 0 0 100 100;"
   xml:space="preserve"
   id="svg10"
   sodipodi:docname="Calendar.svg"
   inkscape:version="0.92.4 (unknown)"><metadata
     id="metadata16"><rdf:RDF><cc:Work
         rdf:about=""><dc:format>image/svg+xml</dc:format><dc:type
           rdf:resource="http://purl.org/dc/dcmitype/StillImage" /><dc:title></dc:title></cc:Work></rdf:RDF></metadata><defs
     id="defs14" /><sodipodi:namedview
     pagecolor="#ffffff"
     bordercolor="#666666"
     borderopacity="1"
     objecttolerance="10"
     gridtolerance="10"
     guidetolerance="10"
     inkscape:pageopacity="0"
     inkscape:pageshadow="2"
     inkscape:window-width="804"
     inkscape:window-height="480"
     id="namedview12"
     showgrid="false"
     inkscape:zoom="1.888"
     inkscape:cx="50"
     inkscape:cy="62.5"
     inkscape:window-x="0"
     inkscape:window-y="0"
     inkscape:window-maximized="0"
     inkscape:current-layer="svg10" /><g
     id="g4"
     transform="translate(-1.5889831,14.300847)"
     style="fill:#ffffff"><path
       d="m 23.3,93.4 h 6.6 18.1 4 18.1 6.6 c 6.6,0 12,-5.4 12,-12 V 74.6 70.6 51.8 38.8 28 c 0,-6.6 -5.4,-12 -12,-12 h -1 v -3.4 c 0,-3.3 -2.7,-6 -6.1,-6 -3.4,0 -6.1,2.7 -6.1,6 V 16 H 36.4 v -3.4 c 0,-3.3 -2.7,-6 -6.1,-6 -3.4,0 -6.1,2.7 -6.1,6 V 16 h -1 c -6.6,0 -12,5.4 -12,12 v 10.8 12.9 18.8 4 6.8 c 0.1,6.8 5.5,12.1 12.1,12.1 z m 7,-82.8 c 1.1,0 2.1,0.9 2.1,2 v 10.7 c 0,1.1 -0.9,2.1 -2.1,2.1 -1.2,0 -2.1,-0.9 -2.1,-2.1 V 12.6 c 0.1,-1.1 1,-2 2.1,-2 z m 39.4,0 c 1.1,0 2.1,0.9 2.1,2 v 10.7 c 0,1.1 -0.9,2.1 -2.1,2.1 -1.2,0 -2.1,-0.9 -2.1,-2.1 V 12.6 c 0,-1.1 0.9,-2 2.1,-2 z m 15,70.8 c 0,4.4 -3.6,8 -8,8 H 70.1 V 74.6 H 84.7 Z M 52,89.4 V 74.6 H 66.1 V 89.4 H 52 Z M 33.9,74.6 H 48 V 89.4 H 33.9 Z M 66.1,51.8 H 52 v -13 H 66.1 Z M 52,70.6 V 55.8 H 66.1 V 70.6 Z M 48,38.8 V 51.7 H 33.9 V 38.8 Z m 0,17 V 70.6 H 33.9 V 55.8 Z M 84.7,70.6 H 70.1 V 55.8 H 84.7 V 70.6 Z M 70.1,51.8 v -13 H 84.7 V 51.7 H 70.1 Z M 29.9,38.8 V 51.7 H 15.3 V 38.8 Z m -14.6,17 H 29.9 V 70.6 H 15.3 Z m 0,18.8 h 14.6 v 14.8 h -6.6 c -4.4,0 -8,-3.6 -8,-8 v -6.8 z"
       id="path2"
       inkscape:connector-curvature="0"
       style="fill:#ffffff" /></g></svg>