<?xml version="1.0" encoding="UTF-8" standalone="no"?>
<svg
   xmlns:dc="http://purl.org/dc/elements/1.1/"
   xmlns:cc="http://creativecommons.org/ns#"
   xmlns:rdf="http://www.w3.org/1999/02/22-rdf-syntax-ns#"
   xmlns:svg="http://www.w3.org/2000/svg"
   xmlns="http://www.w3.org/2000/svg"
   xmlns:sodipodi="http://sodipodi.sourceforge.net/DTD/sodipodi-0.dtd"
   xmlns:inkscape="http://www.inkscape.org/namespaces/inkscape"
   viewBox="0 0 24 30"
   x="0px"
   y="0px"
   version="1.1"
   id="svg3771"
   sodipodi:docname="Moon.svg"
   inkscape:version="0.92.4 (unknown)">
  <metadata
     id="metadata3777">
    <rdf:RDF>
      <cc:Work
         rdf:about="">
        <dc:format>image/svg+xml</dc:format>
        <dc:type
           rdf:resource="http://purl.org/dc/dcmitype/StillImage" />
        <dc:title></dc:title>
      </cc:Work>
    </rdf:RDF>
  </metadata>
  <defs
     id="defs3775" />
  <sodipodi:namedview
     pagecolor="#ffffff"
     bordercolor="#666666"
     borderopacity="1"
     objecttolerance="10"
     gridtolerance="10"
     guidetolerance="10"
     inkscape:pageopacity="0"
     inkscape:pageshadow="2"
     inkscape:window-width="1366"
     inkscape:window-height="707"
     id="namedview3773"
     showgrid="false"
     inkscape:zoom="16.033333"
     inkscape:cx="23.709563"
     inkscape:cy="15"
     inkscape:window-x="0"
     inkscape:window-y="1050"
     inkscape:window-maximized="1"
     inkscape:current-layer="svg3771" />
  <path
     d="m 15.871288,16.942459 c 1.398298,0 2.584365,-0.40172 3.591408,-1.078822 0.362654,-0.243833 0.668754,-0.500509 0.949131,-0.775892 0.07976,-0.07829 0.14526,-0.145829 0.24644,-0.251396 0.0449,-0.04637 0.0449,-0.04637 0.108759,-0.104034 0.04365,-0.04025 0.04365,-0.04025 0.224511,-0.12267 0.609976,0.05875 0.609976,0.05875 0.76207,0.568111 0,5.522847 -4.477155,10 -10,10 -5.522849,0 -10.0000006,-4.477153 -10.0000006,-10 0,-5.5228471 4.4771516,-10.0000001 10.0000006,-10.0000001 0.509376,0.1520961 0.509376,0.1520961 0.568112,0.7620708 -0.0824,0.180904 -0.0824,0.180904 -0.122673,0.2245059 -0.05773,0.063873 -0.05773,0.063873 -0.104035,0.1088024 -0.105607,0.1011717 -0.17309,0.1667146 -0.251395,0.2464346 -0.275386,0.2803783 -0.532054,0.5864786 -0.775887,0.9491282 -0.677109,1.0070479 -1.0788306,2.1931201 -1.0788306,3.5914112 0,3.248732 2.6336286,5.882352 5.8823556,5.882352 z m 4.247848,-0.102518 c -1.191862,0.801367 -2.602037,1.278987 -4.247848,1.278987 -3.898479,0 -7.0588199,-3.160344 -7.0588199,-7.058824 0,-1.6458151 0.4776172,-3.0559834 1.2789819,-4.2478457 0.08068,-0.1200133 0.162544,-0.2347296 0.245674,-0.3449369 -4.1996785,0.6777089 -7.4070102,4.3195126 -7.4070102,8.7104296 0,4.8731 3.950428,8.82353 8.8235292,8.82353 4.39092,0 8.032724,-3.207332 8.710431,-7.407012 -0.110199,0.08313 -0.224927,0.16498 -0.344938,0.245672 z"
     id="path3765"
     style="fill:#ffffff;stroke-width:1.17647076"
     inkscape:connector-curvature="0" />
  <text
     x="0"
     y="39"
     fill="#000000"
     font-size="5px"
     font-weight="bold"
     font-family="'Helvetica Neue', Helvetica, Arial-Unicode, Arial, Sans-serif"
     id="text3767">Created by Jake Park</text>
  <text
     x="0"
     y="44"
     fill="#000000"
     font-size="5px"
     font-weight="bold"
     font-family="'Helvetica Neue', Helvetica, Arial-Unicode, Arial, Sans-serif"
     id="text3769">from the Noun Project</text>
</svg>
